<svg xmlns="http://www.w3.org/2000/svg" xmlns:xlink="http://www.w3.org/1999/xlink" viewBox="0 0 423.26 423"><defs><style>.cls-1{fill:#369;}.cls-2{fill:url(#linear-gradient);}.cls-3{fill:url(#linear-gradient-2);}.cls-4{fill:url(#linear-gradient-3);}.cls-5{fill:url(#linear-gradient-4);}.cls-6{fill:url(#linear-gradient-5);}.cls-7{fill:#300;}.cls-8{fill:#ff3;}</style><linearGradient id="linear-gradient" x1="-76" y1="271.81" x2="-541.13" y2="20.67" gradientTransform="matrix(0.48, -0.25, 0.23, 0.46, 257.15, 83.73)" gradientUnits="userSpaceOnUse"><stop offset="0.3" stop-color="#369"/><stop offset="1" stop-color="#39b54a"/></linearGradient><linearGradient id="linear-gradient-2" x1="-13.22" y1="155.53" x2="-478.35" y2="-95.6" xlink:href="#linear-gradient"/><linearGradient id="linear-gradient-3" x1="-5302.86" y1="-347.64" x2="-4865.26" y2="-78.99" gradientTransform="matrix(-0.47, 0.27, -0.26, -0.44, -2192.15, 1470.77)" xlink:href="#linear-gradient"/><linearGradient id="linear-gradient-4" x1="-577.27" y1="205.67" x2="-146.79" y2="-66.88" gradientTransform="matrix(0.48, -0.25, 0.51, 1.01, 315.35, 198.36)" xlink:href="#linear-gradient"/><linearGradient id="linear-gradient-5" x1="-472.07" y1="371.83" x2="-41.59" y2="99.29" gradientTransform="matrix(0.48, -0.25, 0.51, 1.01, 315.35, 198.36)" xlink:href="#linear-gradient"/></defs><title>Asset 2</title><g id="Layer_2" data-name="Layer 2"><g id="Layer_2-2" data-name="Layer 2"><path class="cls-1" d="M211.76,0C95,0,.26,94.69.26,211.5q0,5.24.26,10.41a12,12,0,0,1,6-7.24l119.83-60.85a42.52,42.52,0,1,1,60.15-30.54l86.2-43.77a12,12,0,0,1,16.13,5.27h0a12,12,0,0,1-5.27,16.13L17.41,236.08a12,12,0,0,1-16.13-5.27c-.06-.13-.11-.26-.17-.38C10.69,338.37,101.33,423,211.76,423c116.81,0,211.5-94.69,211.5-211.5S328.57,0,211.76,0Zm-94,249L376.35,99.77a12,12,0,0,1,16.39,4.39h0a12,12,0,0,1-4.39,16.39L129.81,269.82a12,12,0,0,1-16.39-4.39h0A12,12,0,0,1,117.81,249Zm273.8-15.12-53.16,27,16.09,16.82c10.77,11.26-.29,26.69-19.12,26.69H252.76L125.41,369.08a12,12,0,0,1-10.87-21.4l85-43.18H163.3c-12.88,0-20.91-10.17-14.44-18.28l23.81-29.87c6.44-8.08,22.45-8.08,28.89,0L211,268.23,259.12,218c9.27-9.69,29-9.69,38.23,0l23.76,24.83,59.63-30.28a12,12,0,0,1,16.13,5.27h0A12,12,0,0,1,391.6,233.92Z"/><path class="cls-2" d="M1.11,230.43c-.25-2.82-.46-5.66-.59-8.51A12,12,0,0,0,1.11,230.43Z"/><path class="cls-1" d="M17.41,236.08,283.6,100.92a12,12,0,0,0,5.27-16.13h0a12,12,0,0,0-16.13-5.27l-86.2,43.77a42.51,42.51,0,0,1-60.15,30.54L6.55,214.68a12,12,0,0,0-6,7.24c.14,2.85.34,5.69.59,8.51.06.13.11.26.17.38A12,12,0,0,0,17.41,236.08Z"/><path class="cls-3" d="M17.41,236.08,283.6,100.92a12,12,0,0,0,5.27-16.13h0a12,12,0,0,0-16.13-5.27l-86.2,43.77a42.51,42.51,0,0,1-60.15,30.54L6.55,214.68a12,12,0,0,0-6,7.24c.14,2.85.34,5.69.59,8.51.06.13.11.26.17.38A12,12,0,0,0,17.41,236.08Z"/><path class="cls-1" d="M113.41,265.43a12,12,0,0,0,16.39,4.39L388.35,120.55a12,12,0,0,0,4.39-16.39h0a12,12,0,0,0-16.39-4.39L117.81,249a12,12,0,0,0-4.39,16.39Z"/><path class="cls-4" d="M113.41,265.43a12,12,0,0,0,16.39,4.39L388.35,120.55a12,12,0,0,0,4.39-16.39h0a12,12,0,0,0-16.39-4.39L117.81,249a12,12,0,0,0-4.39,16.39Z"/><path class="cls-1" d="M215.77,304a22.78,22.78,0,0,1-4.85.51H199.58l-85,43.18a12,12,0,0,0,10.87,21.4l127.34-64.66h-31.7A32.47,32.47,0,0,1,215.77,304Z"/><path class="cls-5" d="M215.77,304a22.78,22.78,0,0,1-4.85.51H199.58l-85,43.18a12,12,0,0,0,10.87,21.4l127.34-64.66h-31.7A32.47,32.47,0,0,1,215.77,304Z"/><path class="cls-1" d="M396.87,217.78h0a12,12,0,0,0-16.13-5.27l-59.63,30.28,17.33,18.12,53.16-27A12,12,0,0,0,396.87,217.78Z"/><path class="cls-6" d="M396.87,217.78h0a12,12,0,0,0-16.13-5.27l-59.63,30.28,17.33,18.12,53.16-27A12,12,0,0,0,396.87,217.78Z"/><path class="cls-7" d="M297.35,218c-9.27-9.69-29-9.69-38.23,0L211,268.23l-9.48-11.89c-6.44-8.08-22.45-8.08-28.89,0l-23.81,29.87c-6.47,8.11,1.57,18.28,14.44,18.28h47.62a22.78,22.78,0,0,0,4.85-.51,32.47,32.47,0,0,0,5.29.43H335.42c18.83,0,29.88-15.43,19.12-26.69l-16.09-16.82-17.33-18.12Z"/><path class="cls-8" d="M186.53,123.29A42.51,42.51,0,1,0,144.76,158,42.7,42.7,0,0,0,186.53,123.29Z"/></g></g></svg>