<svg xmlns="http://www.w3.org/2000/svg" xmlns:xlink="http://www.w3.org/1999/xlink" viewBox="0 0 1080 610"><defs><style>.cls-1{fill:none;}.cls-2{fill:#003;}.cls-3{fill:#369;}.cls-4{fill:url(#linear-gradient);}.cls-5{fill:url(#linear-gradient-2);}.cls-6{fill:url(#linear-gradient-3);}.cls-7{fill:url(#linear-gradient-4);}.cls-8{fill:url(#linear-gradient-5);}.cls-9{fill:#300;}.cls-10{fill:#ff3;}.cls-11{font-size:12px;font-family:MyriadPro-Regular, Myriad Pro;}.cls-12{font-size:127.01px;fill:#9c9;font-family:Modern-Regular, Modern No. 20;}</style><linearGradient id="linear-gradient" x1="506.74" y1="418.81" x2="41.61" y2="167.67" gradientTransform="matrix(0.48, -0.25, 0.23, 0.46, 523.77, 307.06)" gradientUnits="userSpaceOnUse"><stop offset="0.3" stop-color="#369"/><stop offset="1" stop-color="#39b54a"/></linearGradient><linearGradient id="linear-gradient-2" x1="569.52" y1="302.53" x2="104.39" y2="51.4" xlink:href="#linear-gradient"/><linearGradient id="linear-gradient-3" x1="-4720.12" y1="-200.64" x2="-4282.52" y2="68.01" gradientTransform="matrix(-0.47, 0.27, -0.26, -0.44, -1297.84, 1524.56)" xlink:href="#linear-gradient"/><linearGradient id="linear-gradient-4" x1="-109.37" y1="171.28" x2="321.11" y2="-101.27" gradientTransform="matrix(0.48, -0.25, 27.18, 53.53, 2154.22, 3518.15)" xlink:href="#linear-gradient"/><linearGradient id="linear-gradient-5" x1="-1.06" y1="342.34" x2="429.42" y2="69.8" gradientTransform="matrix(0.48, -0.25, 27.18, 53.53, 2154.22, 3518.15)" xlink:href="#linear-gradient"/></defs><title>Asset 3</title><g id="Layer_2" data-name="Layer 2"><g id="Layer_1-2" data-name="Layer 1"><path class="cls-1" d="M195.15,592.3c-6.43,0-6.45,10,0,10S201.6,592.3,195.15,592.3Z"/><path class="cls-1" d="M183.15,526.29c-6.43,0-6.45,10,0,10S189.6,526.29,183.15,526.29Z"/><path class="cls-1" d="M222.16,382.28c-6.43,0-6.45,10,0,10S228.6,382.28,222.16,382.28Z"/><path class="cls-1" d="M147.15,244.27c-6.43,0-6.45,10,0,10S153.59,244.27,147.15,244.27Z"/><path class="cls-1" d="M141.15,61.25c-6.43,0-6.45,10,0,10S147.59,61.25,141.15,61.25Z"/><path class="cls-1" d="M363.17,364.28c-6.43,0-6.45,10,0,10S369.62,364.28,363.17,364.28Z"/><path class="cls-1" d="M159.15,112.25c-6.43,0-6.45,10,0,10S165.59,112.25,159.15,112.25Z"/><path class="cls-1" d="M273.16,82.25c-6.43,0-6.45,10,0,10S279.61,82.25,273.16,82.25Z"/><path class="cls-1" d="M342.17,556.3c-6.43,0-6.45,10,0,10S348.61,556.3,342.17,556.3Z"/><path class="cls-1" d="M342.17,268.27c-6.43,0-6.45,10,0,10S348.61,268.27,342.17,268.27Z"/><path class="cls-1" d="M321.17,160.26c-6.43,0-6.45,10,0,10S327.61,160.26,321.17,160.26Z"/><path class="cls-1" d="M129.15,301.27c-6.43,0-6.45,10,0,10S135.59,301.27,129.15,301.27Z"/><path class="cls-1" d="M270.16,493.29c-6.43,0-6.45,10,0,10S276.61,493.29,270.16,493.29Z"/><path class="cls-1" d="M282.16,274.27c-6.43,0-6.45,10,0,10S288.61,274.27,282.16,274.27Z"/><path class="cls-1" d="M267.16,427.28c-6.43,0-6.45,10,0,10S273.61,427.28,267.16,427.28Z"/><path class="cls-1" d="M252.16,178.26c-6.43,0-6.45,10,0,10S258.6,178.26,252.16,178.26Z"/><path class="cls-1" d="M846.22,131.25c6.43,0,6.45-10,0-10S839.77,131.25,846.22,131.25Z"/><path class="cls-1" d="M129.15,445.29c-6.43,0-6.45,10,0,10S135.59,445.29,129.15,445.29Z"/><path class="cls-1" d="M660.2,35.24c6.43,0,6.45-10,0-10S653.75,35.24,660.2,35.24Z"/><path class="cls-1" d="M654.2,137.25c6.43,0,6.45-10,0-10S647.75,137.25,654.2,137.25Z"/><path class="cls-1" d="M975.23,185.26c6.43,0,6.45-10,0-10S968.79,185.26,975.23,185.26Z"/><path class="cls-1" d="M879.22,101.25c6.43,0,6.45-10,0-10S872.78,101.25,879.22,101.25Z"/><path class="cls-1" d="M693.2,158.26c6.43,0,6.45-10,0-10S686.76,158.26,693.2,158.26Z"/><path class="cls-1" d="M78.14,508.29c-6.43,0-6.45,10,0,10S84.59,508.29,78.14,508.29Z"/><path class="cls-1" d="M69.14,193.26c-6.43,0-6.45,10,0,10S75.59,193.26,69.14,193.26Z"/><path class="cls-1" d="M78.14,421.28c-6.43,0-6.45,10,0,10S84.59,421.28,78.14,421.28Z"/><path class="cls-1" d="M57.14,100.25c-6.43,0-6.45,10,0,10S63.58,100.25,57.14,100.25Z"/><path class="cls-1" d="M54.14,391.28c-6.43,0-6.45,10,0,10S60.58,391.28,54.14,391.28Z"/><path class="cls-1" d="M6.13,247.27c-6.43,0-6.45,10,0,10S12.58,247.27,6.13,247.27Z"/><path class="cls-1" d="M477.18,79.25c-6.43,0-6.45,10,0,10S483.63,79.25,477.18,79.25Z"/><path class="cls-1" d="M564.19,127.25c-6.43,0-6.45,10,0,10S570.64,127.25,564.19,127.25Z"/><path class="cls-1" d="M687.2,565.3c-6.43,0-6.45,10,0,10S693.65,565.3,687.2,565.3Z"/><path class="cls-1" d="M540.19,319.27c-6.43,0-6.45,10,0,10S546.63,319.27,540.19,319.27Z"/><path class="cls-1" d="M543.19,202.26c-6.43,0-6.45,10,0,10S549.63,202.26,543.19,202.26Z"/><path class="cls-1" d="M561.19,175.26c-6.43,0-6.45,10,0,10S567.64,175.26,561.19,175.26Z"/><path class="cls-1" d="M621.2,490.29c-6.43,0-6.45,10,0,10S627.64,490.29,621.2,490.29Z"/><path class="cls-1" d="M1026.24,64.25c-6.43,0-6.45,10,0,10S1032.68,64.25,1026.24,64.25Z"/><path class="cls-1" d="M1008.23,493.29c-6.43,0-6.45,10,0,10S1014.68,493.29,1008.23,493.29Z"/><path class="cls-1" d="M852.22,563.3a5.15,5.15,0,0,0,3.54-1.46,5,5,0,0,0,.81-1.09q-3.53,1.08-7.12,2A8.44,8.44,0,0,0,852.22,563.3Z"/><path class="cls-1" d="M591.19,419.28a5.72,5.72,0,0,0,.69,0q-1.42-4.75-2.63-9.59C584.84,411.43,585.48,419.28,591.19,419.28Z"/><path class="cls-1" d="M384.17,493.29c-6.43,0-6.45,10,0,10S390.62,493.29,384.17,493.29Z"/><path class="cls-1" d="M420.18,493.29c-6.43,0-6.45,10,0,10S426.62,493.29,420.18,493.29Z"/><path class="cls-1" d="M417.18,181.26c-6.43,0-6.45,10,0,10S423.62,181.26,417.18,181.26Z"/><path class="cls-1" d="M522.19,547.3c-6.43,0-6.45,10,0,10S528.63,547.3,522.19,547.3Z"/><path class="cls-1" d="M423.18,40.24c-6.43,0-6.45,10,0,10S429.62,40.24,423.18,40.24Z"/><path class="cls-1" d="M396.17,241.27c-6.43,0-6.45,10,0,10S402.62,241.27,396.17,241.27Z"/><path class="cls-1" d="M519.19,457.29c-6.43,0-6.45,10,0,10S525.63,457.29,519.19,457.29Z"/><path class="cls-1" d="M459.18,292.27c-6.43,0-6.45,10,0,10S465.63,292.27,459.18,292.27Z"/><path class="cls-1" d="M462.18,403.28c-6.43,0-6.45,10,0,10S468.63,403.28,462.18,403.28Z"/><path class="cls-2" d="M1080,523.31V0H0V610H1080V533.28C1073.88,533,1073.89,523.55,1080,523.31Zm-104.77-348c6.45,0,6.43,10,0,10S968.8,175.26,975.23,175.26Zm-96-84c6.45,0,6.43,10,0,10S872.79,91.25,879.22,91.25Zm-33,30c6.45,0,6.43,10,0,10S839.78,121.25,846.22,121.25Zm-153,27c6.45,0,6.43,10,0,10S686.77,148.26,693.2,148.26Zm-33-123c6.45,0,6.43,10,0,10S653.77,25.24,660.2,25.24Zm-6,102c6.45,0,6.43,10,0,10S647.76,127.25,654.2,127.25ZM6.13,257.27c-6.45,0-6.43-10,0-10S12.57,257.27,6.13,257.27Zm48,144c-6.45,0-6.43-10,0-10S60.57,401.28,54.14,401.28Zm3-291c-6.45,0-6.43-10,0-10S63.57,110.25,57.14,110.25Zm12,93c-6.45,0-6.43-10,0-10S75.58,203.26,69.14,203.26Zm9,315c-6.45,0-6.43-10,0-10S84.58,518.29,78.14,518.29Zm0-87c-6.45,0-6.43-10,0-10S84.58,431.28,78.14,431.28Zm51,24c-6.45,0-6.43-10,0-10S135.58,455.29,129.15,455.29Zm0-144c-6.45,0-6.43-10,0-10S135.58,311.27,129.15,311.27Zm12-250c6.45,0,6.43,10,0,10S134.71,61.25,141.15,61.25Zm6,193c-6.45,0-6.43-10,0-10S153.58,254.27,147.15,254.27Zm12-132c-6.45,0-6.43-10,0-10S165.58,122.25,159.15,122.25Zm24,414c-6.45,0-6.43-10,0-10S189.59,536.29,183.15,536.29Zm12,66c-6.45,0-6.43-10,0-10S201.59,602.3,195.15,602.3Zm27-210c-6.45,0-6.43-10,0-10S228.59,392.28,222.16,392.28Zm30-204c-6.45,0-6.43-10,0-10S258.59,188.26,252.16,188.26Zm15,239c6.45,0,6.43,10,0,10S260.73,427.28,267.16,427.28Zm3,76c-6.45,0-6.43-10,0-10S276.6,503.29,270.16,503.29Zm3-411c-6.45,0-6.43-10,0-10S279.6,92.25,273.16,92.25Zm9,192c-6.45,0-6.43-10,0-10S288.6,284.27,282.16,284.27Zm39-114c-6.45,0-6.43-10,0-10S327.6,170.26,321.17,170.26Zm21,396c-6.45,0-6.43-10,0-10S348.6,566.3,342.17,566.3Zm0-288c-6.45,0-6.43-10,0-10S348.6,278.27,342.17,278.27Zm21,96c-6.45,0-6.43-10,0-10S369.6,374.28,363.17,374.28Zm21,129c-6.45,0-6.43-10,0-10S390.61,503.29,384.17,503.29Zm12-252c-6.45,0-6.43-10,0-10S402.61,251.27,396.17,251.27Zm21-70c6.45,0,6.43,10,0,10S410.74,181.26,417.18,181.26Zm3,322c-6.45,0-6.43-10,0-10S426.61,503.29,420.18,503.29Zm3-453c-6.45,0-6.43-10,0-10S429.61,50.24,423.18,50.24Zm36,242c6.45,0,6.43,10,0,10S452.75,292.27,459.18,292.27Zm3,121c-6.45,0-6.43-10,0-10S468.61,413.28,462.18,413.28Zm15-324c-6.45,0-6.43-10,0-10S483.62,89.25,477.18,89.25Zm42,368c6.45,0,6.43,10,0,10S512.75,457.29,519.19,457.29Zm3,100c-6.45,0-6.43-10,0-10S528.62,557.3,522.19,557.3Zm18-228c-6.45,0-6.43-10,0-10S546.62,329.27,540.19,329.27Zm3-117c-6.45,0-6.43-10,0-10S549.62,212.26,543.19,212.26Zm18-27c-6.45,0-6.43-10,0-10S567.62,185.26,561.19,185.26Zm3-48c-6.45,0-6.43-10,0-10S570.62,137.25,564.19,137.25Zm57,363c-6.45,0-6.43-10,0-10S627.63,500.29,621.2,500.29Zm66,75c-6.45,0-6.43-10,0-10S693.64,575.3,687.2,575.3Zm169.37-14.56a5,5,0,0,1-.81,1.09,5.15,5.15,0,0,1-3.54,1.46,8.44,8.44,0,0,1-2.77-.52A211.74,211.74,0,0,1,794.5,570C698.81,570,618,506.44,591.88,419.24a5.72,5.72,0,0,1-.69,0c-5.71,0-6.35-7.86-1.94-9.64a210.92,210.92,0,0,1-5.41-32.22,12,12,0,0,1-.59-8.51q-.25-5.18-.26-10.41C583,241.69,677.69,147,794.5,147S1006,241.69,1006,358.5C1006,453.71,943.09,534.22,856.57,560.74Zm151.67-57.45c-6.45,0-6.43-10,0-10S1014.67,503.29,1008.23,503.29Zm18-429c-6.45,0-6.43-10,0-10S1032.67,74.25,1026.24,74.25Z"/><path class="cls-3" d="M794.5,147C677.69,147,583,241.69,583,358.5q0,5.24.26,10.41a12,12,0,0,1,6-7.24l119.83-60.85a42.52,42.52,0,1,1,60.15-30.54l86.2-43.77a12,12,0,0,1,16.13,5.27h0a12,12,0,0,1-5.27,16.13L600.16,383.08A12,12,0,0,1,584,377.81c-.06-.13-.11-.26-.17-.38a210.92,210.92,0,0,0,5.41,32.22q1.2,4.84,2.63,9.59C618,506.44,698.81,570,794.5,570a211.74,211.74,0,0,0,54.95-7.22q3.58-1,7.12-2C943.09,534.22,1006,453.71,1006,358.5,1006,241.69,911.31,147,794.5,147Zm-94,249L959.09,246.77a12,12,0,0,1,16.39,4.39h0a12,12,0,0,1-4.39,16.39L712.55,416.82a12,12,0,0,1-16.39-4.39h0A12,12,0,0,1,700.55,396Zm273.8-15.12-53.16,27,16.09,16.82C948,436,937,451.42,918.16,451.42H835.5L708.16,516.08a12,12,0,0,1-10.87-21.4l85-43.18H746c-12.88,0-20.91-10.17-14.44-18.28l23.81-29.87c6.44-8.08,22.45-8.08,28.89,0l9.48,11.89L841.86,365c9.27-9.69,29-9.69,38.23,0l23.76,24.83,59.63-30.28a12,12,0,0,1,16.13,5.27h0A12,12,0,0,1,974.34,380.92Z"/><path class="cls-2" d="M583.85,377.43c-.25-2.82-.46-5.66-.59-8.51A12,12,0,0,0,583.85,377.43Z"/><path class="cls-4" d="M583.85,377.43c-.25-2.82-.46-5.66-.59-8.51A12,12,0,0,0,583.85,377.43Z"/><path class="cls-3" d="M600.16,383.08,866.34,247.92a12,12,0,0,0,5.27-16.13h0a12,12,0,0,0-16.13-5.27l-86.2,43.77a42.51,42.51,0,0,1-60.15,30.54L589.29,361.68a12,12,0,0,0-6,7.24c.14,2.85.34,5.69.59,8.51.06.13.11.26.17.38A12,12,0,0,0,600.16,383.08Z"/><path class="cls-5" d="M600.16,383.08,866.34,247.92a12,12,0,0,0,5.27-16.13h0a12,12,0,0,0-16.13-5.27l-86.2,43.77a42.51,42.51,0,0,1-60.15,30.54L589.29,361.68a12,12,0,0,0-6,7.24c.14,2.85.34,5.69.59,8.51.06.13.11.26.17.38A12,12,0,0,0,600.16,383.08Z"/><path class="cls-3" d="M696.15,412.43a12,12,0,0,0,16.39,4.39L971.09,267.55a12,12,0,0,0,4.39-16.39h0a12,12,0,0,0-16.39-4.39L700.55,396a12,12,0,0,0-4.39,16.39Z"/><path class="cls-6" d="M696.15,412.43a12,12,0,0,0,16.39,4.39L971.09,267.55a12,12,0,0,0,4.39-16.39h0a12,12,0,0,0-16.39-4.39L700.55,396a12,12,0,0,0-4.39,16.39Z"/><path class="cls-3" d="M798.51,451a22.78,22.78,0,0,1-4.85.51H782.32l-85,43.18a12,12,0,0,0,10.87,21.4L835.5,451.42H803.8A32.47,32.47,0,0,1,798.51,451Z"/><path class="cls-7" d="M798.51,451a22.78,22.78,0,0,1-4.85.51H782.32l-85,43.18a12,12,0,0,0,10.87,21.4L835.5,451.42H803.8A32.47,32.47,0,0,1,798.51,451Z"/><path class="cls-3" d="M979.61,364.78h0a12,12,0,0,0-16.13-5.27l-59.63,30.28,17.33,18.12,53.16-27A12,12,0,0,0,979.61,364.78Z"/><path class="cls-8" d="M979.61,364.78h0a12,12,0,0,0-16.13-5.27l-59.63,30.28,17.33,18.12,53.16-27A12,12,0,0,0,979.61,364.78Z"/><path class="cls-9" d="M880.1,365c-9.27-9.69-29-9.69-38.23,0l-48.09,50.27-9.48-11.89c-6.44-8.08-22.45-8.08-28.89,0l-23.81,29.87c-6.47,8.11,1.57,18.28,14.44,18.28h47.62a22.78,22.78,0,0,0,4.85-.51,32.47,32.47,0,0,0,5.29.43H918.16c18.83,0,29.88-15.43,19.12-26.69l-16.09-16.82-17.33-18.12Z"/><path class="cls-10" d="M769.28,270.29A42.51,42.51,0,1,0,727.5,305,42.7,42.7,0,0,0,769.28,270.29Z"/><text class="cls-11" transform="translate(38.27 61.75)">A</text><text class="cls-12" transform="translate(65.5 250.34) scale(0.77 1)">Around The<tspan x="0" y="152.41">Globe</tspan></text></g></g></svg>